<?xml version="1.0" encoding="UTF-8"?>
<svg width="349px" height="358px" viewBox="0 0 349 358" version="1.1" xmlns="http://www.w3.org/2000/svg" xmlns:xlink="http://www.w3.org/1999/xlink">
    <title>iconProfile</title>
    <g id="Page-1" stroke="none" stroke-width="1" fill="none" fill-rule="evenodd">
        <g id="noun-profile-1117301" transform="translate(0.868550, 0.000000)" fill="#FE4536" fill-rule="nonzero">
            <path d="M0,341.03 C0,350.5495 7.2812,357.831 16.801,357.831 C26.3208,357.831 33.602,350.5498 33.602,341.03 L33.602,324.229 C33.602,265.428 70.563,212.229 126,192.629 C127.1211,192.07041 128.2383,191.5079 129.3594,190.9493 C142.8004,197.6681 157.9184,201.5903 173.5974,201.5903 C189.2774,201.5903 204.3984,197.6684 217.8354,190.9493 C218.9565,191.50789 220.0737,192.0704 221.1948,192.629 C276.6398,212.234 313.6008,265.434 313.6008,324.239 L313.6008,341.04 C313.6008,350.5595 320.882,357.841 330.4018,357.841 C339.9216,357.841 347.2028,350.5598 347.2028,341.04 L347.2028,324.239 C347.2028,257.04 308.0038,196.559 248.6438,167.999 C264.8818,150.077 274.4058,126.558 274.4058,100.8 C274.4058,45.359 229.0468,0 173.6058,0 C118.1648,0 72.8058,45.359 72.8058,100.8 C72.8058,126.562 82.8838,150.081 98.5678,167.999 C39.2048,195.995 0,257.034 0,324.239 L0,341.03 Z M173.6,33.03 C210.561,33.03 240.799,63.268 240.799,100.229 C240.799,137.19 210.561,167.428 173.6,167.428 C136.639,167.428 106.401,137.19 106.401,100.229 C106.401,63.272 136.639,33.03 173.6,33.03 Z" id="iconProfile"></path>
        </g>
    </g>
</svg>