<?xml version="1.0" encoding="UTF-8"?>
<svg width="519px" height="546px" viewBox="0 0 519 546" version="1.1" xmlns="http://www.w3.org/2000/svg" xmlns:xlink="http://www.w3.org/1999/xlink">
    <title>noun-search-1157129</title>
    <g id="Page-1" stroke="none" stroke-width="1" fill="none" fill-rule="evenodd">
        <g id="noun-search-1157129" transform="translate(0.189550, 0.000000)" fill="#FE4536" fill-rule="nonzero">
            <path d="M508.479,490.001 L409.358,390.88 C446.319,349.439 469.28,294.56 469.28,234.64 C469.28,105.28 364,0 234.64,0 C105.28,0 0,105.28 0,234.64 C0,364 105.28,469.28 234.64,469.28 C280.562,469.28 323.12,455.839 358.96,433.44 L462,536.48 C468.1602,542.6402 476.559,545.9995 484.961,545.9995 C493.3594,545.9995 501.762,542.6401 507.922,536.48 C521.36,523.601 521.36,502.878 508.48059,490 L508.479,490.001 Z M65.519,234.641 C65.519,141.68 141.121,65.521 234.639,65.521 C328.157,65.521 403.199,141.681 403.199,234.641 C403.199,327.602 327.597,403.761 234.639,403.761 C141.681,403.761 65.519,328.159 65.519,234.641 Z" id="iconSearch"></path>
        </g>
    </g>
</svg>