<?xml version="1.0" encoding="UTF-8"?>
<svg width="327px" height="532px" viewBox="0 0 327 532" version="1.1" xmlns="http://www.w3.org/2000/svg" xmlns:xlink="http://www.w3.org/1999/xlink">
    <title>left-arrow</title>
    <g id="Page-1" stroke="none" stroke-width="1" fill="none" fill-rule="evenodd">
        <g id="noun-arrow-3134100" transform="translate(163.487004, 265.575446) scale(-1, 1) translate(-163.487004, -265.575446) translate(0.001534, 0.000000)" fill="#000000" fill-rule="nonzero">
            <path d="M0.00701626369,467.924831 C-0.0515777363,484.654831 6.54611626,500.721831 18.3430163,512.580831 C30.1440163,524.443831 46.1750163,531.123831 62.9050163,531.150893 C79.6350163,531.174269 95.6900163,524.545331 107.526016,512.724831 L308.506016,311.514831 C320.385016,299.639831 327.018016,283.506831 326.932016,266.713831 L326.932016,264.643531 L326.932016,264.639625 C327.545296,247.233625 320.889016,230.354625 308.565016,218.049625 L107.465016,17.3496251 C91.4260163,2.09562505 68.5550163,-3.62337495 47.2230163,2.29062505 C25.8910163,8.20082505 9.22701626,24.8766251 3.32801626,46.2126251 C-2.57038374,67.5446251 3.16004626,90.4116251 18.4260163,106.442625 L176.906016,264.922625 L18.4260163,423.402625 C6.61701626,435.207625 -0.0119837363,451.222625 0,467.922625 L0.00701626369,467.924831 Z" id="left-arrow"></path>
        </g>
    </g>
</svg>